<?xml version="1.0" standalone="no"?>
<!DOCTYPE svg PUBLIC "-//W3C//DTD SVG 20010904//EN"
 "http://www.w3.org/TR/2001/REC-SVG-20010904/DTD/svg10.dtd">
<svg version="1.0" xmlns="http://www.w3.org/2000/svg"
 width="1280.000000pt" height="853.000000pt" viewBox="0 0 1280.000000 853.000000"
 preserveAspectRatio="xMidYMid meet">
<g transform="translate(0.000000,853.000000) scale(0.100000,-0.100000)"
fill="#000000" stroke="none">
<path d="M6191 7759 c-92 -26 -194 -90 -232 -145 -32 -47 -59 -166 -59 -265 0
-26 -7 -60 -15 -75 -28 -53 3 -175 59 -234 21 -23 41 -60 56 -106 l23 -72 -31
-38 c-17 -22 -46 -59 -65 -84 -25 -35 -52 -55 -122 -90 -50 -25 -124 -68 -165
-96 -41 -28 -132 -81 -202 -118 -70 -37 -131 -73 -135 -79 -5 -7 -9 -61 -10
-122 -1 -94 -8 -253 -12 -320 -3 -31 -71 50 -111 132 -35 72 -92 155 -130 188
-12 11 -47 34 -79 50 l-56 30 -9 135 c-10 154 2 276 36 350 50 111 61 211 29
273 -30 60 -101 140 -168 191 -120 92 -224 109 -338 55 -38 -18 -78 -46 -98
-69 -63 -74 -178 -332 -232 -523 -22 -78 -28 -171 -15 -225 11 -46 10 -53 -14
-101 -31 -61 -58 -77 -166 -95 -118 -21 -202 -52 -236 -87 -27 -28 -29 -36
-26 -94 2 -53 -1 -68 -20 -92 -29 -36 -59 -78 -128 -179 -56 -83 -136 -184
-202 -258 -52 -57 -61 -41 -53 94 9 154 8 174 -5 216 -18 52 -82 118 -160 164
-75 44 -120 85 -120 110 0 39 36 119 76 169 63 77 69 106 56 296 -13 204 -41
289 -132 400 -49 60 -73 79 -140 115 -59 30 -89 40 -108 36 -15 -3 -62 -12
-105 -20 -87 -17 -117 -35 -170 -100 -36 -43 -87 -134 -87 -154 0 -5 -10 -31
-21 -58 -29 -66 -45 -317 -23 -378 7 -23 14 -51 14 -63 0 -11 18 -60 40 -108
22 -48 40 -95 40 -106 0 -10 -24 -42 -53 -71 -42 -42 -75 -62 -158 -97 -121
-52 -159 -85 -184 -161 -10 -30 -28 -68 -40 -85 -12 -16 -44 -68 -70 -113 -26
-46 -71 -109 -99 -140 -28 -32 -65 -75 -81 -97 -57 -78 -129 -156 -176 -189
-43 -32 -47 -39 -63 -106 -21 -96 -21 -195 2 -240 12 -26 33 -43 77 -65 54
-27 69 -30 155 -30 100 0 102 0 181 -64 27 -21 30 -28 24 -60 -3 -20 -20 -63
-36 -97 -32 -66 -35 -90 -18 -128 12 -25 35 -36 81 -36 36 0 60 -37 62 -93 1
-27 9 -53 23 -71 32 -40 37 -83 22 -183 -14 -103 -16 -411 -2 -498 15 -88 71
-270 163 -525 44 -124 89 -261 100 -305 19 -75 52 -151 118 -270 17 -31 29
-72 33 -110 7 -72 55 -348 74 -425 7 -30 16 -90 20 -133 4 -43 15 -108 26
-145 10 -37 22 -103 25 -147 3 -44 13 -99 21 -123 13 -35 15 -71 9 -205 -8
-201 -13 -222 -70 -270 -38 -31 -46 -45 -56 -92 -6 -30 -10 -69 -8 -87 l3 -33
60 1 c81 1 175 37 253 96 67 51 82 57 82 34 0 -31 -21 -68 -57 -101 -22 -20
-44 -54 -54 -82 -9 -26 -23 -62 -30 -80 -12 -28 -11 -34 6 -52 23 -26 60 -27
156 -2 118 30 184 59 229 99 40 35 42 41 50 113 9 77 35 159 51 159 5 0 12
-14 16 -30 9 -48 23 -46 23 4 0 60 24 162 54 226 26 57 25 73 -11 107 -33 32
-30 60 8 68 19 4 34 16 40 32 12 32 11 320 -1 503 -6 80 -15 208 -20 285 -6
98 -15 158 -30 200 -12 33 -25 80 -30 105 -5 25 -16 65 -25 90 -10 25 -21 86
-26 136 -6 73 -13 99 -33 129 -30 43 -34 94 -11 147 12 31 17 97 14 213 -5
211 12 378 46 458 8 19 10 41 5 58 -9 29 -1 80 17 114 17 33 32 175 26 250 -5
58 -16 91 -65 195 -33 69 -67 133 -75 142 -21 23 -11 42 36 72 39 25 39 26 29
62 -5 21 -7 57 -3 80 5 35 1 56 -19 101 -14 32 -37 96 -52 143 -14 47 -39 114
-55 149 -34 74 -37 130 -11 154 10 10 24 17 30 17 6 0 64 -79 127 -175 64 -96
120 -175 125 -175 5 0 50 -50 101 -110 50 -61 104 -117 119 -125 16 -8 53 -15
83 -15 51 0 57 -3 91 -40 47 -52 47 -74 -1 -86 -34 -8 -39 -14 -51 -54 -7 -25
-20 -69 -28 -98 -20 -67 -13 -76 74 -96 37 -8 72 -23 79 -32 7 -10 13 -42 13
-71 0 -47 3 -56 35 -84 23 -22 39 -49 51 -88 16 -57 65 -177 135 -336 22 -49
74 -148 116 -218 42 -70 97 -183 123 -250 26 -67 55 -139 64 -159 9 -21 16
-51 16 -67 0 -17 8 -49 17 -72 14 -37 15 -52 5 -111 -7 -38 -12 -84 -12 -103
0 -19 -9 -63 -19 -97 -80 -264 -85 -291 -89 -503 -4 -203 2 -268 43 -455 20
-90 14 -126 -27 -176 -38 -48 -67 -111 -68 -145 0 -14 20 -67 45 -118 37 -77
47 -108 55 -184 6 -51 14 -93 18 -95 47 -17 58 -31 74 -91 23 -84 45 -106 140
-136 101 -32 179 -33 232 -2 64 36 65 44 19 138 -54 113 -57 123 -38 159 24
46 83 79 206 116 137 40 148 49 141 112 -2 26 -9 55 -13 64 -5 9 -43 35 -84
58 -120 66 -130 78 -165 189 -27 88 -30 112 -30 227 0 75 6 162 15 209 9 44
34 190 55 325 l39 245 56 51 c30 28 55 58 55 66 0 9 9 35 19 59 16 36 20 79
26 234 11 319 19 377 90 670 44 181 50 583 10 687 -4 9 -1 26 5 38 9 17 8 35
-5 83 -17 65 -17 156 0 158 6 1 54 -86 108 -194 l98 -196 50 -16 c28 -10 54
-26 60 -38 7 -11 31 -138 55 -281 24 -144 47 -268 50 -276 11 -30 33 -161 44
-261 6 -57 22 -151 36 -210 21 -96 24 -135 28 -400 6 -408 22 -742 45 -932 11
-89 25 -207 30 -262 7 -74 15 -112 34 -146 21 -41 24 -56 20 -125 -2 -44 -11
-123 -20 -177 -19 -112 -12 -147 37 -215 79 -109 250 -139 295 -51 23 44 34
134 24 194 -44 262 -44 267 -21 465 12 102 24 262 27 355 3 94 8 240 12 325 5
131 3 168 -13 240 -24 106 -23 293 1 373 16 50 24 118 45 382 5 66 18 196 29
288 16 146 22 172 42 193 12 13 26 24 31 24 20 0 39 -57 68 -200 33 -167 53
-237 107 -370 29 -70 36 -103 43 -201 6 -67 17 -137 28 -165 15 -42 18 -77 16
-244 -1 -118 4 -232 12 -290 8 -52 19 -155 25 -228 l10 -133 -27 -57 c-21 -46
-28 -79 -34 -167 -4 -60 -13 -126 -19 -145 -14 -46 -4 -159 18 -184 26 -30
108 -66 150 -66 49 0 87 -30 139 -109 20 -30 52 -66 71 -78 71 -48 264 -95
325 -79 32 8 61 63 53 97 -7 27 -108 134 -211 224 -86 74 -126 150 -126 237 0
85 19 204 45 284 22 68 23 80 18 295 -4 198 -2 240 17 364 35 223 57 400 70
565 5 69 17 202 25 295 9 94 20 348 25 565 5 217 13 416 18 441 5 26 20 61 34
78 23 26 27 43 32 128 4 54 14 138 22 186 11 63 13 115 8 178 -9 118 -9 118
117 118 83 0 101 -3 106 -16 4 -9 -1 -136 -10 -282 -10 -146 -20 -310 -22
-363 l-6 -97 36 -39 c32 -36 36 -48 50 -143 8 -57 22 -232 30 -389 22 -422 35
-622 42 -650 3 -14 9 -146 13 -295 l7 -270 71 -345 c39 -190 78 -388 87 -440
8 -52 22 -117 31 -145 8 -27 18 -86 21 -130 l5 -80 -78 -65 c-113 -93 -161
-192 -114 -235 16 -15 30 -17 77 -11 129 15 186 35 294 102 177 112 179 111
179 -46 0 -105 1 -109 26 -129 15 -12 32 -21 39 -21 20 0 23 -21 14 -80 -14
-88 2 -147 46 -176 24 -15 29 -15 88 6 156 58 198 94 217 187 6 32 30 114 52
183 44 137 44 152 12 290 -19 82 -20 104 -29 745 -5 378 -8 429 -27 504 -16
66 -19 104 -15 170 8 135 44 547 66 761 11 107 28 289 37 404 13 144 22 213
32 222 7 8 31 17 53 20 75 12 74 7 49 210 -24 196 -67 439 -102 577 -25 99
-27 85 38 237 15 36 43 131 63 213 19 81 38 147 42 147 6 0 42 -141 110 -435
12 -49 43 -157 70 -239 30 -89 47 -157 44 -170 -4 -11 -19 -50 -35 -86 -16
-36 -34 -99 -41 -140 -6 -41 -21 -97 -32 -125 -16 -39 -20 -70 -19 -140 1 -49
-3 -107 -8 -127 -6 -20 -15 -74 -21 -119 -10 -82 -8 -106 22 -279 6 -36 15
-97 18 -136 5 -44 16 -85 29 -108 33 -56 43 -110 48 -245 3 -91 11 -155 30
-231 20 -80 24 -115 18 -150 -16 -98 -19 -1090 -4 -1405 6 -110 17 -229 25
-265 22 -91 76 -198 131 -259 26 -28 58 -69 73 -91 27 -41 110 -108 173 -141
80 -41 142 -16 183 77 22 51 26 54 82 70 54 16 64 16 148 1 50 -9 110 -19 135
-22 24 -3 80 -19 125 -34 120 -42 147 -45 200 -22 25 11 48 28 52 37 14 37
-54 118 -159 190 -45 32 -149 149 -180 206 -15 27 -15 35 -2 78 8 27 28 139
44 249 16 110 33 209 39 219 17 33 91 299 117 422 37 182 52 319 59 550 3 118
9 251 11 295 3 44 7 130 9 190 2 61 9 130 15 155 8 30 13 156 15 370 l2 325
31 18 c36 21 35 14 23 170 -8 101 -7 112 19 195 15 49 35 103 44 120 9 18 21
69 26 115 6 45 15 103 21 129 6 26 12 114 13 195 3 148 3 148 -34 248 -35 95
-36 105 -32 196 4 90 2 100 -27 170 -18 41 -52 155 -77 254 -65 263 -81 320
-99 354 -16 31 -59 58 -128 80 -28 10 -44 24 -64 59 -26 44 -27 53 -35 241 -4
126 -14 233 -27 301 -11 58 -29 162 -40 232 -21 136 -25 147 -81 223 -54 73
-103 113 -147 120 -21 3 -70 12 -108 21 l-70 16 -57 -27 c-70 -33 -150 -116
-184 -189 -30 -65 -54 -179 -90 -421 -15 -103 -39 -217 -55 -267 -16 -48 -29
-94 -29 -102 0 -30 -35 -56 -90 -66 -50 -9 -61 -16 -116 -75 -34 -36 -69 -65
-78 -65 -10 0 -33 18 -53 40 -34 38 -91 64 -188 85 -44 9 -110 51 -175 109
-31 28 -78 68 -104 90 -26 21 -51 48 -56 61 -14 38 8 101 46 130 47 36 81 147
65 211 -15 59 -14 111 4 188 17 71 13 128 -13 191 -24 60 -39 73 -134 121 -99
50 -146 55 -234 27 -75 -23 -160 -93 -185 -150 -11 -25 -27 -93 -35 -152 -10
-67 -25 -124 -41 -155 -23 -45 -25 -58 -19 -120 4 -39 15 -86 26 -106 10 -19
31 -60 45 -90 15 -30 42 -86 61 -124 19 -39 34 -77 34 -86 0 -27 -101 -175
-135 -199 -18 -12 -88 -37 -156 -55 -144 -40 -153 -48 -187 -156 -23 -74 -89
-231 -118 -280 -8 -14 -35 -67 -60 -118 -43 -87 -81 -132 -109 -132 -26 0 -35
64 -35 239 -1 97 -8 230 -16 296 -8 66 -19 156 -24 200 -26 219 -48 314 -84
350 -12 12 -60 35 -107 50 -71 23 -319 123 -424 169 -16 8 -49 28 -73 45 -40
30 -42 34 -37 69 4 20 15 58 25 83 11 25 22 66 26 90 4 24 18 65 31 90 13 25
29 82 35 126 12 80 11 82 -14 120 -14 21 -35 76 -47 123 -42 164 -86 229 -190
283 -88 46 -96 47 -170 26z m-2395 -2377 c17 -11 31 -42 74 -163 22 -61 40
-124 40 -141 0 -35 -56 -223 -76 -255 -8 -13 -19 -23 -24 -23 -14 0 -104 143
-162 256 -46 93 -50 106 -40 130 19 40 157 204 172 204 3 0 10 -4 16 -8z
m6046 -2544 c8 -13 25 -48 37 -78 23 -54 24 -57 12 -195 -7 -77 -16 -295 -20
-485 -7 -329 -9 -348 -32 -414 -13 -38 -29 -71 -35 -73 -24 -8 -84 361 -94
572 -6 130 -12 169 -29 208 -23 54 -28 137 -10 202 11 40 111 249 131 272 15
18 24 16 40 -9z"/>
</g>
</svg>
